<svg t="1714299436696" class="icon" viewBox="0 0 1260 1024" version="1.1" xmlns="http://www.w3.org/2000/svg" p-id="5512" width="256" height="256"><path d="M415.774044 146.795632L642.120378 21.649506l238.602184 112.973479L648.244143 280.827873z" fill="#FFFFFF" p-id="5513"></path><path d="M1253.614918 598.439938L642.228542 951.455018c-3.444618 1.98856-6.231929 6.806032-6.215288 10.766511l0.166406 57.352054c0 3.960478 2.812272 5.557982 6.256891 3.577743L1253.822926 670.136245c3.444618-1.99688 6.231929-6.822673 6.215289-10.774831L1259.871808 601.99272c0-2.795632-1.414457-4.418097-3.452938-4.418097a5.724389 5.724389 0 0 0-2.803952 0.856994" fill="#AFB4EC" p-id="5514"></path><path d="M623.782364 317.362454L18.17862 585.401976 641.255063 952.029121l614.49818-354.454498" fill="#FFFFFD" p-id="5515"></path><path d="M184.951371 536.944358L184.834887 537.052522C184.776644 537.110764 184.710082 537.152366 184.651839 537.218929l-0.083203 0.083203-0.058242 0.074883-0.083204 0.083203-0.166406 0.208009-0.049922 0.083203C184.194221 537.75143 184.185901 537.768071 184.17758 537.784711l-0.049922 0.083204-0.124805 0.166406a5.75767 5.75767 0 0 0-0.099844 0.183048L183.886369 538.24233V538.25065l-0.083204 0.141446a5.117005 5.117005 0 0 0-0.083203 0.183047l-0.083203 0.166407v0.01664l-0.083204 0.191368-0.066562 0.199688L183.453711 539.24909A1.023401 1.023401 0 0 0 183.453711 539.299012L183.42043 539.365575a3.74415 3.74415 0 0 0-0.058242 0.24961L183.337227 539.74831 183.328906 539.831513 183.312266 539.898076A3.436297 3.436297 0 0 0 183.287305 540.314093l0.124805 43.665106c0 0.665627 0.224649 1.139886 0.599064 1.356214l450.670826 268.097764c-0.374415-0.216329-0.599064-0.682267-0.607384-1.347894l-0.116485-43.665106c0-0.166407 0.016641-0.324493 0.041602-0.4909 0-0.016641 0-0.049922 0.016641-0.074883a3.49454 3.49454 0 0 1 0.099844-0.457618c0-0.016641 0-0.033281 0.01664-0.041602a4.576183 4.576183 0 0 1 0.174727-0.49922v-0.00832a5.083723 5.083723 0 0 1 0.24961-0.49922v-0.00832a4.725949 4.725949 0 0 1 0.291212-0.457619l0.024961-0.033281a3.74415 3.74415 0 0 1 0.374415-0.449298l0.24961-0.24961 0.124805-0.108164a3.344774 3.344774 0 0 1 0.391056-0.274571L185.342427 536.669787A2.645866 2.645866 0 0 0 184.951371 536.944358" fill="#E3EAFE" p-id="5516"></path><path d="M1086.501033 549.133645L638.101657 805.283411a4.559542 4.559542 0 0 0-2.088403 3.594384l0.116484 43.082683c0.00832 1.314613 0.948518 1.855434 2.113365 1.189808L1086.642479 597.00052a4.567863 4.567863 0 0 0 2.096724-3.586063L1088.614398 550.331773c0-0.940198-0.474259-1.481019-1.164847-1.481019a1.971919 1.971919 0 0 0-0.948518 0.282891" fill="#AFB4EC" p-id="5517"></path><path d="M417.047055 488.569943l231.205408 133.374935c-0.124805-0.066563-0.124805-116.734269 0-350.011441L415.765724 146.787311l0.981799 341.125326c0 0.316173 0.108164 0.540822 0.299532 0.648985z" fill="#E3E9FF" p-id="5518"></path><path d="M429.020014 388.101924l194.75403 112.016641-1.01508-131.660947L428.004933 256.449298l1.015081 131.652626" fill="#FDFDFF" p-id="5519"></path><path d="M640.040295 33.289652L452.475032 142.50234l195.694228 110.078003 205.021321-117.965678c0.033281-0.016641-71.014041-33.797192-213.150286-101.325013z" fill="#819FFF" p-id="5520"></path><path d="M878.734003 134.75611L649.275864 270.111284a2.329693 2.329693 0 0 0-1.023401 1.822153l0.965159 349.270931c0 0.665627 0.465939 0.931877 1.031721 0.599064l229.458138-135.355174a2.271451 2.271451 0 0 0 1.023401-1.805512l-0.965158-349.279251c0-0.474259-0.232969-0.74883-0.574103-0.74883a0.890276 0.890276 0 0 0-0.457618 0.141445" fill="#2742C3" p-id="5521"></path><path d="M746.132858 344.287051v58.358815l48.940198-26.924597V317.362454L746.132858 344.287051" fill="#FFFFFF" p-id="5522"></path><path d="M819.551475 295.554862v58.358815l48.940198-26.924597V268.630265L819.551475 295.554862" fill="#FFFFFF" p-id="5523"></path><path d="M672.722562 380.838274v58.358814l48.940198-26.924597V353.913677L672.722562 380.838274" fill="#FFFFFF" p-id="5524"></path><path d="M403.534835 341.033801c-0.024961 10.25897 6.914197 22.855954 15.434217 28.006241l152.578263 92.322412c8.5117 5.150286 15.49246 0.981799 15.525741-9.26885 0.024961-10.267291-6.914197-22.864275-15.425897-28.014561L419.068896 331.75663C416.589437 330.25897 414.243103 329.551742 412.154699 329.551742 407.079296 329.551742 403.551475 333.76183 403.534835 341.033801" fill="#425EDB" p-id="5525"></path><path d="M434.145339 355.219969c3.378055 3.020281 6.107124 10.325533 6.098804 16.349454-0.016641 6.00728-2.76235 8.436817-6.140406 5.408216-3.386375-3.020281-6.107124-10.342174-6.098804-16.341134 0.00832-6.023921 2.75403-8.445138 6.140406-5.416536" fill="#FFFFFF" p-id="5526"></path><path d="M544.264944 416.133125c3.378055 3.020281 6.107124 10.333853 6.098804 16.349454-0.00832 6.00728-2.76235 8.436817-6.140406 5.416537-3.386375-3.020281-6.107124-10.342174-6.098804-16.341134 0.016641-6.032241 2.75403-8.445138 6.140406-5.424857" fill="#FFFFFF" p-id="5527"></path><path d="M470.854647 378.932917c3.369735 1.50598 6.107124 5.166927 6.090484 8.178887-0.00832 3.00364-2.75403 4.210088-6.132085 2.704109-3.386375-1.514301-6.115445-5.166927-6.098804-8.170567 0.00832-3.01196 2.74571-4.226729 6.132085-2.712429" fill="#FFFFFF" p-id="5528"></path><path d="M17.404829 585.909516a6.023921 6.023921 0 0 0-0.391055 0.291212l-0.216329 0.174727-0.349454 0.299532-0.208008 0.199688-0.133126 0.116485-0.133125 0.141445a9.51014 9.51014 0 0 0-0.416017 0.432658l-0.124805 0.141445-0.108164 0.124805-0.24129 0.291212-0.166406 0.191368-0.116485 0.166406-0.166406 0.23297-0.124805 0.158086-0.191368 0.282891-0.116485 0.174727-0.049922 0.074883a22.298492 22.298492 0 0 0-0.324493 0.524181l-0.01664 0.033281-0.058243 0.108165-0.216328 0.374415-0.083204 0.174727-0.099844 0.191367-0.083203 0.158087a16.416017 16.416017 0 0 0-0.199688 0.432657l-0.033281 0.083203-0.016641 0.016641-0.224649 0.549142-0.033281 0.099844a8.636505 8.636505 0 0 1-0.083204 0.199688l-0.091523 0.282891-0.066563 0.216329a5.541342 5.541342 0 0 0-0.083203 0.24961l-0.049922 0.166407-0.066563 0.274571-0.083203 0.316172c0 0.041602-0.016641 0.074883-0.024961 0.108165l-0.033282 0.224649c-0.033281 0.166407-0.066563 0.332813-0.083203 0.499219-0.00832 0.041602-0.024961 0.083203-0.024961 0.133126l-0.033281 0.299532-0.024961 0.216328a8.636505 8.636505 0 0 0-0.024961 0.690588l0.166406 56.561623c0 1.697348 0.532501 2.953718 1.414457 3.669266a3.036921 3.036921 0 0 0 0.391056 0.274571L638.842167 1024c-1.114925-0.640666-1.805512-2.013521-1.813833-3.943838l-1.081643-57.401976c0-0.224649 0-0.440978 0.024961-0.673947l0.016641-0.216328 0.058242-0.440978 0.083203-0.49922 0.074883-0.332813 0.066563-0.316173 0.116485-0.432657 0.083203-0.24961 0.166407-0.49922 0.074883-0.199688 0.274571-0.673947 0.041601-0.083204a21.582943 21.582943 0 0 1 0.366095-0.782111l0.307852-0.549142 0.058243-0.108164c0.124805-0.216329 0.25793-0.416017 0.399376-0.624025l0.116484-0.183047a23.296932 23.296932 0 0 1 0.307853-0.440978l0.166406-0.232969 0.282891-0.349454 0.24961-0.291212 0.23297-0.266251c0.141446-0.149766 0.274571-0.299532 0.416016-0.432657a2.221529 2.221529 0 0 1 0.266251-0.266251l0.199688-0.191367a4.659386 4.659386 0 0 1 0.357774-0.307853l0.216329-0.166406c0.124805-0.108164 0.24961-0.208008 0.382735-0.299532l0.191368-0.133126 0.590744-0.374415L18.186941 585.401976a7.954238 7.954238 0 0 0-0.599064 0.374415l-0.183048 0.133125z" fill="#E3E9FF" p-id="5529"></path><path d="M507.555635 403.303172c3.378055 1.514301 6.107124 5.158606 6.098804 8.178887-0.00832 2.99532-2.76235 4.210088-6.132085 2.695788-3.386375-1.50598-6.115445-5.166927-6.098804-8.170567 0-3.01196 2.74571-4.218409 6.132085-2.704108" fill="#FFFFFF" p-id="5530"></path><path d="M647.794845 889.984399h-0.024961-0.016641-0.00832c-0.00832 0.016641-0.016641 0.016641-0.024961 0.016641L611.543155 907.972959l37.117005 18.554342 36.176807-17.971919a0.066563 0.066563 0 0 1 0.033281 0l0.033281-0.01664h0.033282l0.024961 0.00832L647.836447 889.99272 647.819806 889.984399h-0.024961z" fill="#09B8FF" p-id="5531"></path><path d="M647.952931 895.034841h-0.024961H647.91133L647.91133 895.059802 623.782364 907.032761l24.74467 12.372335 24.128965-11.981279 0.008321-0.00832h0.058242L647.994533 895.034841h-0.00832L647.969572 895.034841h-0.00832-0.008321" fill="#71DDFF" p-id="5532"></path><path d="M1039.482832 536.669787h-0.01664H1039.449551L1039.449551 536.694748 1015.320586 548.667707l24.74467 12.372335 24.128965-11.98128 0.00832-0.00832 0.024961-0.00832h0.033282L1039.532754 536.686427h-0.00832L1039.507793 536.669787h-0.00832-0.00832" fill="#09B8FF" p-id="5533"></path><path d="M232.41055 528.349454h-0.016641H232.377268L232.377268 528.374415 208.248303 540.347374l24.74467 12.372335 24.128965-11.981279 0.00832-0.008321 0.024961-0.00832h0.033282L232.460472 528.366095h-0.008321L232.435511 528.349454h-0.008321-0.00832" fill="#09B8FF" p-id="5534"></path><path d="M1033.1677 536.686427l-18.088404 11.98128 18.554342 12.364014 18.096724-11.981279 0.016641-0.00832L1033.225942 536.678107H1033.1677z" fill="#71DDFF" p-id="5535"></path><path d="M226.095417 528.366095l-18.088404 11.981279 18.554343 12.364014 18.096723-11.981279 0.016641-0.00832L226.153659 528.357774H226.095417z" fill="#71DDFF" p-id="5536"></path></svg>