<svg xmlns="http://www.w3.org/2000/svg" width="24" height="24" viewBox="0 0 24 24">
  <defs>
    <style>
      .cls-1 {
        fill: #f2f2f2;
        fill-rule: evenodd;
      }
    </style>
  </defs>
  <path id="形状_1" data-name="形状 1" class="cls-1" d="M6,1H18a4,4,0,0,1,4,4V19a4,4,0,0,1-4,4H6a4,4,0,0,1-4-4V5A4,4,0,0,1,6,1Zm8.716,11.96a0.774,0.774,0,0,1-.334-0.075L12,11.745,9.618,12.885a0.776,0.776,0,0,1-.756-0.05A0.629,0.629,0,0,1,8.577,12.2L9.032,9.778,7.1,8.068A0.614,0.614,0,0,1,6.922,7.4,0.7,0.7,0,0,1,7.5,6.954L10.165,6.6l1.191-2.2a0.751,0.751,0,0,1,1.287,0l1.191,2.2L16.5,6.954a0.7,0.7,0,0,1,.579.444,0.612,0.612,0,0,1-.182.67L14.969,9.78,15.424,12.2a0.661,0.661,0,0,1-.584.754,0.778,0.778,0,0,1-.124.01h0ZM8.5,15h7a1.5,1.5,0,0,1,0,3h-7A1.5,1.5,0,0,1,8.5,15Z"/>
</svg>
