<?xml version="1.0" standalone="no"?><!DOCTYPE svg PUBLIC "-//W3C//DTD SVG 1.1//EN" "http://www.w3.org/Graphics/SVG/1.1/DTD/svg11.dtd"><svg t="1714291139361" class="icon" viewBox="0 0 1024 1024" version="1.1" xmlns="http://www.w3.org/2000/svg" p-id="18444" xmlns:xlink="http://www.w3.org/1999/xlink" width="256" height="256"><path d="M810.24 128.7168l1.3824 0.1792c2.688 0.64 4.736 3.072 4.736 5.9392v289.4592l-0.1792 1.3824a6.1696 6.1696 0 0 1-5.9392 4.7104H537.856v123.7504h315.776v153.5232H921.6v187.6224h-187.648v-187.648h67.9936v-101.8112H537.8304v101.8368h67.968v187.6224h-187.648v-187.648h68.0192v-101.8112H222.0544v101.8368h67.9936v187.6224H102.4v-187.648h67.9936v-153.4976H486.144v-123.7504H213.76l-1.408-0.1536a6.1696 6.1696 0 0 1-4.7104-5.9392V134.8352l0.1536-1.3824a6.1696 6.1696 0 0 1 5.9648-4.736h596.48zM228.352 754.8416H163.9936l-2.1248 0.1536a14.3872 14.3872 0 0 0-12.288 14.2336v64.3584l0.1792 2.1504c1.024 6.9376 6.9888 12.2624 14.2336 12.2624H228.352l2.1248-0.1536a14.3872 14.3872 0 0 0 12.288-14.2592v-64.3584l-0.1792-2.1248a14.3872 14.3872 0 0 0-14.2336-12.288z m315.776 0h-64.3584l-2.1248 0.1536a14.3872 14.3872 0 0 0-12.288 14.2336v64.3584l0.1792 2.1504c1.024 6.9376 6.9888 12.2624 14.2336 12.2624h64.3584l2.1248-0.1536a14.3872 14.3872 0 0 0 12.288-14.2592v-64.3584l-0.1536-2.1248a14.3872 14.3872 0 0 0-14.2592-12.288z m315.776 0h-64.3584l-2.1248 0.1536a14.3872 14.3872 0 0 0-12.288 14.2336v64.3584l0.1792 2.1504c1.024 6.912 6.9888 12.2624 14.2336 12.2624h64.3584l2.1248-0.1536a14.3872 14.3872 0 0 0 12.288-14.2592v-64.3584l-0.1536-2.1248a14.3872 14.3872 0 0 0-14.2592-12.288z m-90.8544-578.816H254.9504v207.0784h514.0992v-207.104zM389.1968 247.1424a32.4096 32.4096 0 1 1 0 64.8448 32.4096 32.4096 0 0 1 0-64.8448z" fill="#ffffff" p-id="18445"></path></svg>