<svg t="1714295658284" class="icon" viewBox="0 0 1024 1024" version="1.1" xmlns="http://www.w3.org/2000/svg" p-id="88962" width="256" height="256"><path d="M492.8 72.192c18.88-10.88 42.176-10.88 61.056 0l334.656 193.6a60.16 60.16 0 0 1 30.08 52.096v388.224a60.16 60.16 0 0 1-30.08 52.096l-334.592 193.6a61.184 61.184 0 0 1-61.248 0l-334.528-193.6A60.16 60.16 0 0 1 128 706.112V317.888c0-21.504 11.52-41.28 30.08-52.096L492.8 72.192z m261.504 304.32a32.64 32.64 0 0 0-44.672-10.624L529.152 475.52 343.232 365.696l-2.304-1.28a32.576 32.576 0 0 0-43.392 14.848 32 32 0 0 0 12.544 41.728l186.88 110.464v200.96l0.128 2.56a32.384 32.384 0 0 0 64.832-2.56V531.2l181.632-110.4 2.176-1.472a32 32 0 0 0 8.576-42.816z" fill="#ffffff" p-id="88963"></path></svg>