<svg t="1718781373865" class="icon" viewBox="0 0 1024 1024" version="1.1" xmlns="http://www.w3.org/2000/svg" p-id="5357" width="200" height="200"><path d="M791.8 273.1H232.9c-10.6 0-19.2 8.6-19.2 19.2v446.2c0 10.6 8.6 19.2 19.2 19.2h558.9c10.6 0 19.2-8.6 19.2-19.2V292.3c0-10.6-8.6-19.2-19.2-19.2zM366 354.4c26.9 0 50.7 22.2 50.7 50.7 0 28.5-22.2 50.7-50.7 50.7-26.9 0-50.7-22.2-50.7-50.7 0-28.5 23.8-50.7 50.7-50.7z m372 329.4c0 1.6-408.5 1.6-408.5 1.6h-30c-2.8 0-7.3-1.7-10.5-3-3.9-1.6-7.2-4.5-9.1-8.2-3.5-6.6-2.3-14.3 3.1-21.2 0.5-0.5 0.9-1.1 1.4-1.6C295 640.8 412 524.2 412 524.2c7.9-7.9 19-9.5 28.5-3.2l71.4 50.3c8 5.7 19.1 4.3 25.5-3.1l132-151.3c0.3-0.3 0.5-0.6 0.8-0.9 8.4-8.5 43.1-45 65.1-7.7 1.7 2.9 2.6 6.3 2.6 9.7v265.8z" p-id="5358"></path><path d="M892.4 161.4H131.3c-16.1 0-29.2 13.1-29.2 29.2v648.6c0 16.1 13.1 29.2 29.2 29.2h761.2c16.1 0 29.2-13.1 29.2-29.2V190.6c0-16.1-13.1-29.2-29.3-29.2zM851.7 774c0 15.2-12.3 27.5-27.5 27.5H200.5c-15.2 0-27.5-12.3-27.5-27.5V258.9c0-15.2 12.3-27.5 27.5-27.5h623.8c15.2 0 27.5 12.3 27.5 27.5V774z" p-id="5359"></path></svg>