<?xml version="1.0" standalone="no"?><!DOCTYPE svg PUBLIC "-//W3C//DTD SVG 1.1//EN" "http://www.w3.org/Graphics/SVG/1.1/DTD/svg11.dtd"><svg t="1714290429539" class="icon" viewBox="0 0 1024 1024" version="1.1" xmlns="http://www.w3.org/2000/svg" p-id="11266" xmlns:xlink="http://www.w3.org/1999/xlink" width="200" height="200"><path d="M974.7968 866.7648h-31.8464V420.864a127.744 127.744 0 0 0-127.3856-127.3856h-191.1296v541.44a31.5392 31.5392 0 0 1-31.8464 31.8464 31.5392 31.5392 0 0 1-31.8464-31.8464V229.7856A127.744 127.744 0 0 0 433.3568 102.4H242.2784a127.744 127.744 0 0 0-127.3856 127.3856v636.928h-31.8464a31.5392 31.5392 0 0 0-31.8464 31.8976c0 17.8176 14.0288 31.8464 31.8464 31.8464h891.7504a31.5392 31.5392 0 0 0 31.8464-31.8464 31.5392 31.5392 0 0 0-31.8464-31.8464zM401.5104 739.328H274.1248a31.5392 31.5392 0 0 1-31.8464-31.8464c0-17.8176 14.0288-31.8464 31.8464-31.8464h127.3856c17.8688 0 31.8464 14.0288 31.8464 31.8464a31.5392 31.5392 0 0 1-31.8464 31.8464z m0-191.0784H274.1248a31.5392 31.5392 0 0 1-31.8464-31.8464c0-17.8176 14.0288-31.8464 31.8464-31.8464h127.3856c17.8688 0 31.8464 14.0288 31.8464 31.8464a31.5392 31.5392 0 0 1-31.8464 31.8464z m0-191.0784H274.1248a31.5392 31.5392 0 0 1-31.8464-31.8464c0-17.8176 14.0288-31.8464 31.8464-31.8464h127.3856c17.8688 0 31.8464 14.0288 31.8464 31.8464a31.5392 31.5392 0 0 1-31.8464 31.8464z m445.9008 382.1568h-127.3856a31.5392 31.5392 0 0 1-31.8976-31.8464c0-17.8176 14.0288-31.8464 31.8976-31.8464h127.3856c17.8176 0 31.8464 14.0288 31.8464 31.8464a31.5392 31.5392 0 0 1-31.8464 31.8464z m0-191.0784h-127.3856a31.5392 31.5392 0 0 1-31.8976-31.8464c0-17.8176 14.0288-31.8464 31.8976-31.8464h127.3856c17.8176 0 31.8464 14.0288 31.8464 31.8464a31.5392 31.5392 0 0 1-31.8464 31.8464z" fill="#ffffff" p-id="11267"></path></svg>