<svg xmlns="http://www.w3.org/2000/svg" width="24" height="24" viewBox="0 0 24 24">
  <defs>
    <style>
      .cls-1 {
        fill: #f2f2f2;
        fill-rule: evenodd;
      }
    </style>
  </defs>
  <path id="形状_1239" data-name="形状 1239" class="cls-1" d="M19,19h5V16H19v3ZM17,6V9h7V6H17Zm1,8h6V11H18v3Zm-5.568-1.877a5.886,5.886,0,0,0,.549-8.532,6.07,6.07,0,0,0-8.117-.668,5.887,5.887,0,0,0-.885,8.5,5.971,5.971,0,0,0,.7.7C1.9,13.552.162,17.392,0.162,20.489c0,0,0,.008,0,0.012C0.165,21.154.34,22,1,22H16c0.65,0,.935-0.832.953-1.475V20.489C16.954,17.392,15.211,13.552,12.432,12.123Z"/>
</svg>
