<svg t="1714294129016" class="icon" viewBox="0 0 1024 1024" version="1.1" xmlns="http://www.w3.org/2000/svg" p-id="74867" width="256" height="256"><path d="M983.04 470.528h-429.568V40.96C665.6 47.616 771.072 94.72 849.92 174.08c79.36 78.848 126.464 183.808 133.12 296.448zM152.064 826.368C80.384 743.936 40.96 638.976 40.96 529.92c0-121.344 47.104-235.008 132.608-320.512 76.8-76.8 179.2-123.392 287.744-131.072v439.296l-309.248 308.736zM494.08 983.04c120.832 0 234.496-47.104 320-132.608 76.8-76.8 123.392-179.2 131.072-288.256l-437.248-1.536-310.784 311.296c83.456 71.68 188.416 111.104 296.96 111.104z" fill="#ffffff" p-id="74868"></path></svg>