<svg t="1718781450110" class="icon" viewBox="0 0 1024 1024" version="1.1" xmlns="http://www.w3.org/2000/svg" p-id="6357" width="200" height="200"><path d="M942.4384 823.168c-7.1552-4.1216-16.384-8.064-29.0176-12.3008-20.9024-7.04-48.2048-13.9264-77.1072-21.2352-15.3344-3.84-30.6304-7.7696-45.8752-11.8528 2.944-0.1024 6.0288-0.1792 9.2032-0.2688 39.7056-0.896 76.1216 0.0128 76.5184 0.0256a28.7104 28.7104 0 0 0 1.5104-57.3824h-0.0384c-1.8688-0.0512-46.3616-1.1904-92.352 0.3328-27.5968 0.9088-50.0608 2.5984-66.7392 5.056-11.2896 1.6384-20.16 3.6224-27.1872 6.1056-15.2064 5.376-24.5888 14.336-27.8144 26.6752-2.9696 11.264 0.192 23.0144 8.6272 32.2048 4.2368 4.5696 9.6384 8.5504 17.0496 12.48 31.1552 16.512 82.944 29.6064 133.0432 42.2656 14.2592 3.6096 28.032 7.0912 40.6272 10.4704-163.9168 35.3536-387.6224 42.1888-504.9216 37.7088a28.6848 28.6848 0 0 0-2.2016 57.344c22.3744 0.8576 46.8992 1.2928 72.704 1.2928 58.5216-0.0256 123.5968-2.1632 184.7424-6.2592 80.768-5.4272 197.6448-17.088 295.7824-41.9072 14.656-3.712 25.1904-7.4368 33.2416-11.7504 20.3392-10.88 23.36-26.1376 23.36-34.2912 0-9.7024-4.032-23.5776-23.1552-34.7136z" p-id="6358"></path><path d="M572.9664 663.7312l345.8048-0.9984 47.7824-4.608c0-249.1648-85.632-361.8304-205.6832-395.1104-101.0432-18.1248-163.0464 73.2544-200.3072 173.2992-3.8272-202.432-94.336-364.416-205.504-364.4032-113.6 0-217.2672 158.784-252.032 377.7152-34.7776 218.9312-30.208 377.2032-30.208 377.2032l515.4944-1.7664c-0.0128 0-8-74.2272-15.3472-161.3312z" p-id="6359"></path></svg>