<svg t="1714293423791" class="icon" viewBox="0 0 1024 1024" version="1.1" xmlns="http://www.w3.org/2000/svg" p-id="54220" width="256" height="256"><path d="M878.498909 46.545455H191.441455C163.002182 46.545455 139.636364 70.050909 139.636364 98.676364v800.069818c0 28.578909 23.365818 52.130909 51.805091 52.130909h687.662545c28.439273 0 51.805091-23.552 51.805091-52.130909V99.281455c0-13.963636-5.492364-27.461818-15.313455-37.329455A52.130909 52.130909 0 0 0 878.498909 46.545455z m-411.741091 761.94909H285.509818a32.442182 32.442182 0 0 1 0-64.791272h180.596364c17.687273 0 32.209455 14.615273 32.209454 32.395636a31.930182 31.930182 0 0 1-31.557818 32.395636z m154.717091-157.602909H285.509818a32.442182 32.442182 0 0 1 0-64.791272h335.313455c17.687273 0 32.209455 14.615273 32.209454 32.395636a31.930182 31.930182 0 0 1-31.557818 32.395636z m154.717091-208.430545c-5.073455 3.165091-12.008727 0.651636-12.008727 0.651636l-102.306909-43.845818a20.014545 20.014545 0 0 0-17.035637 0l-100.398545 44.450909s-6.330182 1.303273-9.495273-1.256727c-3.165091-2.56-3.770182-8.285091-3.770182-8.285091V100.584727h248.785455v331.729455s0.651636 6.981818-3.770182 10.146909z" fill="#ffffff" p-id="54221"></path></svg>